<svg width="31" height="30" viewBox="0 0 31 30" fill="none" xmlns="http://www.w3.org/2000/svg">
<g clip-path="url(#clip0_463_24372)">
<path d="M6.37422 9.6C2.91192 9.6 0.0742188 12.429 0.0742188 15.882C0.0742188 17.22 0.501419 18.4635 1.22472 19.4856L5.60562 27.0588C6.21912 27.8604 6.62712 27.7083 7.13742 27.0168L11.9692 18.7938C12.0667 18.6168 12.1432 18.429 12.2101 18.237C12.5167 17.4897 12.6744 16.6897 12.6742 15.882C12.6742 12.429 9.83742 9.6 6.37422 9.6ZM6.37422 12.5436C8.23902 12.5436 9.72222 14.0229 9.72222 15.8823C9.72222 17.7417 8.23902 19.2204 6.37422 19.2204C4.50972 19.2204 3.02622 17.7414 3.02622 15.8823C3.02622 14.0229 4.50972 12.5436 6.37422 12.5436ZM26.3992 0C24.3796 0 22.7242 1.6503 22.7242 3.6648C22.7242 4.4451 22.9732 5.1705 23.3953 5.7666L25.951 10.1844C26.3089 10.6518 26.5468 10.563 26.8444 10.1598L29.6629 5.3628C29.7199 5.2599 29.7646 5.1504 29.8033 5.0382C29.9822 4.60242 30.0743 4.13588 30.0742 3.6648C30.0742 1.65 28.4194 0 26.3992 0ZM26.3992 1.7172C27.487 1.7172 28.3522 2.58 28.3522 3.6648C28.3522 4.7493 27.487 5.6118 26.3992 5.6118C25.3117 5.6118 24.4462 4.7493 24.4462 3.6648C24.4462 2.58 25.3117 1.7172 26.3992 1.7172Z" fill="#4DA528"/>
<path fill-rule="evenodd" clip-rule="evenodd" d="M26.5371 11.2236C25.863 11.2386 25.1871 11.2671 24.51 11.3172L24.6144 12.9768C25.2648 12.9297 25.9163 12.8994 26.5683 12.8859L26.5371 11.2236ZM22.9446 11.4696C21.9036 11.5989 20.8536 11.7831 19.8156 12.0792L20.2065 13.6875C21.1497 13.4187 22.1271 13.245 23.1198 13.1217L22.9446 11.4696ZM18.2613 12.636C17.9502 12.7733 17.6491 12.932 17.3601 13.1109L17.3589 13.1124L17.3571 13.113C16.9446 13.3728 16.5099 13.7025 16.155 14.1816C15.8979 14.5287 15.6876 14.9676 15.6384 15.4866L17.1669 15.6561C17.1783 15.5343 17.2407 15.3735 17.3529 15.2223H17.3535V15.2217C17.5344 14.9769 17.8056 14.7546 18.1281 14.5512L18.1293 14.5506C18.3591 14.4088 18.5985 14.2829 18.8457 14.1738L18.2613 12.636ZM17.4744 16.3965L16.4835 17.667C16.7184 17.8818 16.9647 18.0468 17.2026 18.1848L17.2056 18.1863L17.2086 18.1881C17.9982 18.6372 18.8124 18.8907 19.5672 19.1313L20.001 17.5359C19.2465 17.2953 18.5352 17.0631 17.9256 16.7169C17.751 16.6155 17.598 16.5096 17.4744 16.3965ZM21.4749 17.9847L21.0513 19.5828L21.2517 19.6452L21.4977 19.7238C22.3119 19.9887 23.0919 20.2716 23.7891 20.6631L24.4965 19.1871C23.6535 18.7134 22.7784 18.4038 21.9351 18.1296L21.9327 18.129L21.6801 18.0483L21.4749 17.9847ZM25.935 20.2947L24.8481 21.4707C25.1049 21.7488 25.2972 22.0833 25.3908 22.4289L25.3914 22.4307L25.392 22.4334C25.5036 22.8369 25.5039 23.3115 25.4166 23.7909L26.9238 24.1125C27.0468 23.4357 27.0666 22.6926 26.8644 21.9591C26.6883 21.3105 26.3523 20.7471 25.935 20.2947ZM24.8904 24.7929C24.7243 24.9684 24.5407 25.1264 24.3426 25.2645H24.342C23.802 25.6443 23.1756 25.9305 22.5102 26.1765L23.0064 27.7497C23.7342 27.4806 24.4815 27.1506 25.1799 26.6592L25.1817 26.6577L25.1826 26.6571C25.4694 26.4563 25.7347 26.2264 25.9743 25.971L24.8904 24.7929ZM21.0984 26.6196C20.1345 26.8788 19.1493 27.0762 18.1521 27.2436L18.3873 28.8873C19.4136 28.7148 20.4441 28.5087 21.4683 28.2333L21.0984 26.6196ZM16.6518 27.4704C15.648 27.6075 14.6388 27.7194 13.6266 27.8148L13.7592 29.4714C14.787 29.3748 15.8166 29.2611 16.8447 29.1204L16.6518 27.4704ZM12.1053 27.9453C11.091 28.0257 10.0743 28.0911 9.05666 28.1463L9.13346 29.8071C10.161 29.7516 11.1894 29.6853 12.2175 29.6037L12.1053 27.9453ZM7.52756 28.2213C6.91766 28.2498 6.30626 28.2732 5.69336 28.2948L5.74376 29.9571C6.36049 29.9359 6.9771 29.9113 7.59356 29.8833L7.52756 28.2213Z" fill="#4DA528"/>
</g>
<defs>
<clipPath id="clip0_463_24372">
<rect width="30" height="30" fill="white" transform="translate(0.0742188)"/>
</clipPath>
</defs>
</svg>
