<svg width="60" height="60" viewBox="0 0 60 60" fill="none" xmlns="http://www.w3.org/2000/svg">
<g clip-path="url(#clip0_657_12772)">
<path fill-rule="evenodd" clip-rule="evenodd" d="M44.375 12.5C44.375 13.8261 43.8482 15.0979 42.9105 16.0355C41.9729 16.9732 40.7011 17.5 39.375 17.5C38.0489 17.5 36.7771 16.9732 35.8395 16.0355C34.9018 15.0979 34.375 13.8261 34.375 12.5C34.375 11.1739 34.9018 9.90215 35.8395 8.96447C36.7771 8.02678 38.0489 7.5 39.375 7.5C40.7011 7.5 41.9729 8.02678 42.9105 8.96447C43.8482 9.90215 44.375 11.1739 44.375 12.5ZM41.875 12.5C41.875 13.163 41.6116 13.7989 41.1428 14.2678C40.6739 14.7366 40.038 15 39.375 15C38.712 15 38.0761 14.7366 37.6072 14.2678C37.1384 13.7989 36.875 13.163 36.875 12.5C36.875 11.837 37.1384 11.2011 37.6072 10.7322C38.0761 10.2634 38.712 10 39.375 10C40.038 10 40.6739 10.2634 41.1428 10.7322C41.6116 11.2011 41.875 11.837 41.875 12.5ZM13.75 35C13.75 34.337 14.0134 33.7011 14.4822 33.2322C14.9511 32.7634 15.587 32.5 16.25 32.5H20C20.663 32.5 21.2989 32.7634 21.7678 33.2322C22.2366 33.7011 22.5 34.337 22.5 35V37.5H26.25C26.913 37.5 27.5489 37.7634 28.0178 38.2322C28.4866 38.7011 28.75 39.337 28.75 40V50C28.75 50.663 28.4866 51.2989 28.0178 51.7678C27.5489 52.2366 26.913 52.5 26.25 52.5H10C9.33696 52.5 8.70107 52.2366 8.23223 51.7678C7.76339 51.2989 7.5 50.663 7.5 50V40C7.5 39.337 7.76339 38.7011 8.23223 38.2322C8.70107 37.7634 9.33696 37.5 10 37.5H13.75V35ZM10 50V40H12.5V50H10ZM20 35V37.5H16.25V35H20ZM21.25 40H15V50H21.25V40ZM23.75 40V50H26.25V40H23.75Z" fill="#4DA528"/>
<path d="M47.5 27.5C47.5 26.837 47.2366 26.2011 46.7678 25.7322C46.2989 25.2634 45.663 25 45 25V30C45.663 30 46.2989 29.7366 46.7678 29.2678C47.2366 28.7989 47.5 28.163 47.5 27.5Z" fill="#4DA528"/>
<path fill-rule="evenodd" clip-rule="evenodd" d="M35 52.5C34.0054 52.5 33.0516 52.1049 32.3483 51.4016C31.6451 50.6984 31.25 49.7446 31.25 48.75V27.5H25C24.0054 27.5 23.0516 27.1049 22.3483 26.4017C21.6451 25.6984 21.25 24.7446 21.25 23.75C21.25 22.7554 21.6451 21.8016 22.3483 21.0983C23.0516 20.3951 24.0054 20 25 20H46.27C47.6612 20 52.5 21.705 52.5 26.9637C52.5 31.1375 49.4537 33.7475 47.5 34.6475V48.75C47.5 49.7446 47.1049 50.6984 46.4016 51.4016C45.6984 52.1049 44.7446 52.5 43.75 52.5C42.7554 52.5 41.8016 52.1049 41.0984 51.4016C40.3951 50.6984 40 49.7446 40 48.75V38.75H38.75V48.75C38.75 49.6262 38.45 50.4325 37.945 51.0712C37.5941 51.5165 37.1467 51.8764 36.6366 52.1239C36.1265 52.3714 35.567 52.5 35 52.5ZM45 33.0463L46.4537 32.3762C47.8837 31.7175 50 29.8175 50 26.9637C50 25.2212 49.2438 24.1662 48.365 23.4775C47.9381 23.1457 47.4636 22.8802 46.9575 22.69C46.7384 22.604 46.5109 22.5412 46.2787 22.5025C46.2621 22.5008 46.2587 22.5 46.2687 22.5H25C24.6685 22.5 24.3505 22.6317 24.1161 22.8661C23.8817 23.1005 23.75 23.4185 23.75 23.75C23.75 24.0815 23.8817 24.3995 24.1161 24.6339C24.3505 24.8683 24.6685 25 25 25H33.75V48.75C33.75 49.0815 33.8817 49.3995 34.1161 49.6339C34.3505 49.8683 34.6685 50 35 50C35.3315 50 35.6495 49.8683 35.8839 49.6339C36.1183 49.3995 36.25 49.0815 36.25 48.75V36.25H42.5V48.75C42.5 49.0815 42.6317 49.3995 42.8661 49.6339C43.1005 49.8683 43.4185 50 43.75 50C44.0815 50 44.3995 49.8683 44.6339 49.6339C44.8683 49.3995 45 49.0815 45 48.75V33.0463Z" fill="#4DA528"/>
</g>
<defs>
<clipPath id="clip0_657_12772">
<rect width="60" height="60" fill="white"/>
</clipPath>
</defs>
</svg>
