<svg width="14" height="21" viewBox="0 0 14 21" fill="none" xmlns="http://www.w3.org/2000/svg">
<path d="M7 10.3975C6.33696 10.3975 5.70107 10.1341 5.23223 9.66523C4.76339 9.19639 4.5 8.5605 4.5 7.89746C4.5 7.23442 4.76339 6.59854 5.23223 6.12969C5.70107 5.66085 6.33696 5.39746 7 5.39746C7.66304 5.39746 8.29893 5.66085 8.76777 6.12969C9.23661 6.59854 9.5 7.23442 9.5 7.89746C9.5 8.22577 9.43534 8.55086 9.3097 8.85417C9.18406 9.15748 8.99991 9.43308 8.76777 9.66523C8.53562 9.89737 8.26002 10.0815 7.95671 10.2072C7.65339 10.3328 7.3283 10.3975 7 10.3975ZM7 0.897461C5.14348 0.897461 3.36301 1.63496 2.05025 2.94771C0.737498 4.26047 0 6.04095 0 7.89746C0 13.1475 7 20.8975 7 20.8975C7 20.8975 14 13.1475 14 7.89746C14 6.04095 13.2625 4.26047 11.9497 2.94771C10.637 1.63496 8.85652 0.897461 7 0.897461Z" fill="#4DA528"/>
</svg>
