<svg width="18" height="20" viewBox="0 0 18 20" fill="none" xmlns="http://www.w3.org/2000/svg">
<path d="M12.8743 13.0563C13.4415 12.7516 14.0907 12.5781 14.7821 12.5781H14.7844C14.8547 12.5781 14.8876 12.4938 14.836 12.4469C14.117 11.8016 13.2956 11.2804 12.4055 10.9047C12.3962 10.9 12.3868 10.8977 12.3774 10.893C13.8329 9.83594 14.7797 8.11797 14.7797 6.17969C14.7797 2.96875 12.1829 0.367188 8.97896 0.367188C5.77506 0.367188 3.18053 2.96875 3.18053 6.17969C3.18053 8.11797 4.1274 9.83594 5.58521 10.893C5.57584 10.8977 5.56646 10.9 5.55709 10.9047C4.50943 11.3477 3.56959 11.9828 2.761 12.7938C1.95706 13.5962 1.31703 14.5475 0.876621 15.5945C0.443292 16.6198 0.209429 17.7184 0.187559 18.8312C0.186933 18.8563 0.191321 18.8812 0.200463 18.9044C0.209605 18.9277 0.223317 18.949 0.240791 18.9669C0.258264 18.9848 0.279146 18.999 0.302206 19.0087C0.325265 19.0184 0.350036 19.0234 0.375059 19.0234H1.77896C1.87975 19.0234 1.96412 18.9414 1.96646 18.8406C2.01334 17.0312 2.73756 15.3367 4.01959 14.0523C5.34381 12.7234 7.10631 11.9922 8.98131 11.9922C10.3102 11.9922 11.5852 12.3602 12.6844 13.0492C12.7127 13.067 12.7451 13.077 12.7784 13.0782C12.8117 13.0794 12.8448 13.0719 12.8743 13.0563ZM8.98131 10.2109C7.90787 10.2109 6.89771 9.79141 6.136 9.02969C5.76122 8.65588 5.46411 8.21161 5.26178 7.72248C5.05945 7.23335 4.95589 6.70901 4.95709 6.17969C4.95709 5.10391 5.37662 4.09141 6.136 3.32969C6.89537 2.56797 7.90553 2.14844 8.98131 2.14844C10.0571 2.14844 11.0649 2.56797 11.8266 3.32969C12.2014 3.70349 12.4985 4.14776 12.7008 4.63689C12.9032 5.12603 13.0067 5.65036 13.0055 6.17969C13.0055 7.25547 12.586 8.26797 11.8266 9.02969C11.0649 9.79141 10.0547 10.2109 8.98131 10.2109ZM17.6016 15.7891H15.6329V13.8203C15.6329 13.7172 15.5485 13.6328 15.4454 13.6328H14.1329C14.0297 13.6328 13.9454 13.7172 13.9454 13.8203V15.7891H11.9766C11.8735 15.7891 11.7891 15.8734 11.7891 15.9766V17.2891C11.7891 17.3922 11.8735 17.4766 11.9766 17.4766H13.9454V19.4453C13.9454 19.5484 14.0297 19.6328 14.1329 19.6328H15.4454C15.5485 19.6328 15.6329 19.5484 15.6329 19.4453V17.4766H17.6016C17.7047 17.4766 17.7891 17.3922 17.7891 17.2891V15.9766C17.7891 15.8734 17.7047 15.7891 17.6016 15.7891Z" fill="#4DA528"/>
</svg>
