<svg width="61" height="60" viewBox="0 0 61 60" fill="none" xmlns="http://www.w3.org/2000/svg">
<g clip-path="url(#clip0_657_12778)">
<path d="M48.6941 5.82944C50.6531 7.36544 52.0031 9.84644 52.5551 12.4444L52.7501 12.5224L58.8851 15.3604C59.2278 15.5182 59.5183 15.7706 59.7224 16.0879C59.9265 16.4052 60.0357 16.7742 60.0371 17.1514V54.2524C60.0349 54.5606 59.9613 54.8641 59.8222 55.1391C59.683 55.4141 59.482 55.6531 59.2349 55.8374C58.9879 56.0216 58.7015 56.1462 58.3983 56.2012C58.095 56.2562 57.7831 56.2402 57.4871 56.1544L40.4801 51.3544L20.2601 56.9284C19.8954 57.0293 19.5096 57.0251 19.1471 56.9164L1.45911 51.6514C1.05027 51.5314 0.691079 51.2826 0.434895 50.9421C0.178712 50.6016 0.0392084 50.1875 0.0371094 49.7614L0.0371094 11.9944C0.0371094 10.6744 1.32111 9.72644 2.60211 10.0984L19.7081 15.0814L28.4021 12.4204C28.5221 12.3844 28.6441 12.3594 28.7681 12.3454C29.1041 10.3774 30.0431 8.48744 31.6181 6.64544C33.4871 4.45544 36.7661 3.17144 39.9611 3.01844C43.2761 2.85944 45.8081 3.56744 48.6911 5.82644M4.03611 14.6434V48.2884L18.6461 52.6354V18.8944L4.03611 14.6434ZM28.6631 16.4854L22.6451 18.3244V52.1614L37.8401 47.9794V38.0944C37.8401 37.0024 38.7371 36.1174 39.8411 36.1174C40.9451 36.1174 41.8391 37.0024 41.8391 38.0974V47.6284L56.0381 51.6334V18.4084L52.6781 16.8484C52.6221 17.1784 52.5491 17.5014 52.4591 17.8174C51.8092 20.1187 50.7146 22.2702 49.2371 24.1504L41.8061 33.4294C41.6105 33.6734 41.3606 33.8684 41.0763 33.9988C40.7921 34.1292 40.4813 34.1915 40.1688 34.1807C39.8562 34.17 39.5505 34.0864 39.2759 33.9367C39.0014 33.787 38.7655 33.5753 38.5871 33.3184L31.6421 23.2594C30.4941 21.6614 29.6931 20.2254 29.2391 18.9514C28.9537 18.1541 28.7604 17.3267 28.6631 16.4854ZM40.1531 6.97244C37.9751 7.07744 35.7371 7.95344 34.6721 9.19844C33.3911 10.6984 32.7611 12.1024 32.6351 13.5244C32.4851 15.2374 32.5871 16.4464 33.0131 17.6434C33.3281 18.5284 33.9551 19.6504 34.9241 21.0034L40.3571 28.8694L46.0871 21.7144C47.2439 20.2376 48.1009 18.549 48.6101 16.7434C49.3301 14.2234 48.2441 10.5214 46.2101 8.93144C44.1251 7.29644 42.5501 6.85544 40.1561 6.97244M40.5701 9.06344C43.8821 9.06344 46.5701 11.7184 46.5701 14.9944C46.5598 16.5762 45.9221 18.0893 44.7972 19.2013C43.6722 20.3133 42.1519 20.9334 40.5701 20.9254C37.2581 20.9254 34.5701 18.2704 34.5701 14.9944C34.5701 11.7184 37.2581 9.06344 40.5701 9.06344ZM40.5701 13.0174C40.3089 13.0159 40.05 13.0657 39.808 13.1642C39.5661 13.2627 39.346 13.4079 39.1601 13.5915C38.9743 13.7751 38.8265 13.9935 38.7251 14.2342C38.6237 14.4749 38.5707 14.7332 38.5691 14.9944C38.5691 16.0864 39.4661 16.9714 40.5701 16.9714C40.8313 16.9726 41.0902 16.9223 41.332 16.8235C41.5737 16.7246 41.7937 16.5791 41.9792 16.3952C42.1647 16.2114 42.3122 15.9928 42.4133 15.7519C42.5143 15.511 42.5669 15.2526 42.5681 14.9914C42.5641 14.465 42.3516 13.9615 41.9771 13.5915C41.6025 13.2215 41.0966 13.015 40.5701 13.0174Z" fill="#4DA528"/>
</g>
<defs>
<clipPath id="clip0_657_12778">
<rect width="60" height="60" fill="white" transform="translate(0.0371094)"/>
</clipPath>
</defs>
</svg>
