<svg width="20" height="19" viewBox="0 0 20 19" fill="none" xmlns="http://www.w3.org/2000/svg">
<path d="M2 2.5H5L7 0.5H13L15 2.5H18C18.5304 2.5 19.0391 2.71071 19.4142 3.08579C19.7893 3.46086 20 3.96957 20 4.5V16.5C20 17.0304 19.7893 17.5391 19.4142 17.9142C19.0391 18.2893 18.5304 18.5 18 18.5H2C1.46957 18.5 0.960859 18.2893 0.585786 17.9142C0.210714 17.5391 0 17.0304 0 16.5V4.5C0 3.96957 0.210714 3.46086 0.585786 3.08579C0.960859 2.71071 1.46957 2.5 2 2.5ZM10 5.5C8.67392 5.5 7.40215 6.02678 6.46447 6.96447C5.52678 7.90215 5 9.17392 5 10.5C5 11.8261 5.52678 13.0979 6.46447 14.0355C7.40215 14.9732 8.67392 15.5 10 15.5C11.3261 15.5 12.5979 14.9732 13.5355 14.0355C14.4732 13.0979 15 11.8261 15 10.5C15 9.17392 14.4732 7.90215 13.5355 6.96447C12.5979 6.02678 11.3261 5.5 10 5.5ZM10 7.5C10.7956 7.5 11.5587 7.81607 12.1213 8.37868C12.6839 8.94129 13 9.70435 13 10.5C13 11.2956 12.6839 12.0587 12.1213 12.6213C11.5587 13.1839 10.7956 13.5 10 13.5C9.20435 13.5 8.44129 13.1839 7.87868 12.6213C7.31607 12.0587 7 11.2956 7 10.5C7 9.70435 7.31607 8.94129 7.87868 8.37868C8.44129 7.81607 9.20435 7.5 10 7.5Z" fill="white"/>
</svg>
