<svg width="18" height="18" viewBox="0 0 18 18" fill="none" xmlns="http://www.w3.org/2000/svg">
<path d="M4.50113 0H13.5011V2.24663H15.7511V0C16.3477 0.000298271 16.9197 0.237483 17.3414 0.659407C17.7631 1.08133 18 1.65346 18 2.25V15.75C18 16.3465 17.7631 16.9187 17.3414 17.3406C16.9197 17.7625 16.3477 17.9997 15.7511 18V15.7466H13.5011V18H4.50113V15.7466H2.25112V18C1.65439 18 1.08097 17.7629 0.65901 17.341C0.237053 16.919 0 16.3467 0 15.75V2.25C0 1.65326 0.237053 1.08097 0.65901 0.65901C1.08097 0.237053 1.65326 0 2.25 0L2.25112 2.24663H4.50113V0ZM6.75 12.375L11.8125 9L6.75 5.625V12.375ZM15.7511 13.4966V10.1216H13.5011V13.4966H15.7511ZM15.7511 7.87162V4.49663H13.5011V7.87162H15.7511ZM4.50113 13.4966V10.1216H2.25112V13.4966H4.50113ZM4.50113 7.87162V4.49663H2.25112V7.87162H4.50113Z" fill="white"/>
</svg>
